Coordinates
version=1
nRows=14
nColumns=42
inDegrees=yes

Units are S.I. units (second, meters, Newtons, ...)
If the header above contains a line with 'inDegrees', this indicates whether rotational values are in degrees (yes) or radians (no).

endheader
time	pelvis_tilt	pelvis_list	pelvis_rotation	pelvis_tx	pelvis_ty	pelvis_tz	hip_flexion_r	hip_adduction_r	hip_rotation_r	knee_angle_r	knee_adduction_r	knee_angle_r_beta	ankle_angle_r	subtalar_angle_r	mtp_angle_r	hip_flexion_l	hip_adduction_l	hip_rotation_l	knee_angle_l	knee_adduction_l	knee_angle_l_beta	ankle_angle_l	subtalar_angle_l	mtp_angle_l	lumbar_extension	lumbar_bending	lumbar_rotation	arm_flex_r	arm_add_r	arm_rot_r	elbow_flex_r	pro_sup_r	wrist_flex_r	wrist_dev_r	arm_flex_l	arm_add_l	arm_rot_l	elbow_flex_l	pro_sup_l	wrist_flex_l	wrist_dev_l
      2.06000000	      5.16705771	      0.91640826	      9.59075971	      0.35193537	      0.85411680	      0.15664299	     27.78073958	      0.37636453	     -5.91302541	     31.89376562	     -2.89181453	      0.55665122	     12.73748076	    -18.35284292	     -7.50592907	     11.90251219	      8.56432722	     -9.87878607	     40.45665931	    -12.93090163	      0.70610191	     30.46623149	     -7.74315952	     -7.50592907	    -33.44373187	      3.36962229	     -7.28663323	     10.24617317	     -4.59969315	     -7.53041957	     30.01739419	     90.00000001	      0.00000000	      0.00000000	     27.05746510	    -12.13615902	      3.58583441	     34.74271342	     90.00000001	      0.00000000	      0.00000000
      2.07000000	      5.00180482	      0.89626327	      9.78005447	      0.36057768	      0.85300793	      0.15684057	     27.88064677	      0.32201282	     -6.72982875	     29.31549228	     -3.05455966	      0.51165186	     12.60248717	    -18.02201687	     -7.50581407	     11.47333390	      8.45529312	     -9.86011704	     40.59419755	    -13.06148532	      0.70850240	     31.08607195	     -7.65649309	     -7.50581407	    -33.29024242	      3.46325823	     -7.31075891	      9.77979825	     -4.64425195	     -7.68503827	     29.89077295	     90.00000001	      0.00000000	      0.00000000	     27.40324979	    -12.12468931	      3.69870435	     35.09826280	     90.00000001	      0.00000000	      0.00000000
      2.08000000	      4.85360615	      0.86363461	      9.97993533	      0.36931441	      0.85186174	      0.15707776	     27.95572437	      0.27996924	     -7.35582138	     27.22261650	     -3.07330595	      0.47512429	     12.43273773	    -17.70664838	     -7.50571547	     11.01529958	      8.33263800	     -9.79431472	     40.72612364	    -13.18938136	      0.71080495	     31.79248304	     -7.50737987	     -7.50571547	    -33.15512152	      3.59427315	     -7.31174994	      9.34795887	     -4.69487786	     -7.87726145	     29.71410970	     90.00000001	      0.00000000	      0.00000000	     27.68651734	    -12.09080276	      3.85329242	     35.49930853	     90.00000001	      0.00000000	      0.00000000
      2.09000000	      4.74027902	      0.77043771	     10.16451963	      0.37817132	      0.85073000	      0.15742668	     27.96776421	      0.34527455	     -7.73927264	     25.59710431	     -2.99347796	      0.44675375	     12.18393539	    -17.43757644	     -7.50564541	     10.52138276	      8.14932109	     -9.61616005	     40.89580651	    -13.29744863	      0.71376647	     32.55450001	     -7.39698468	     -7.50564541	    -33.01589717	      3.76004777	     -7.26967076	      8.97900181	     -4.74407803	     -8.12262421	     29.48805237	     90.00000001	      0.00000000	      0.00000000	     27.90050724	    -12.06047977	      4.03431285	     35.91685899	     90.00000001	      0.00000000	      0.00000000
      2.10000000	      4.66702363	      0.66592536	     10.36062121	      0.38710766	      0.84963879	      0.15780187	     27.94842460	      0.44252460	     -7.94749375	     24.54843690	     -2.85977987	      0.42845105	     11.91903382	    -17.23933684	     -7.50554883	      9.98040323	      7.92683540	     -9.41352777	     41.06857060	    -13.36698002	      0.71678178	     33.40712136	     -7.26450143	     -7.50554883	    -32.92136256	      3.96546188	     -7.22368954	      8.64476764	     -4.75180110	     -8.47847499	     29.26295022	     90.00000001	      0.00000000	      0.00000000	     28.01620492	    -12.06092894	      4.28845161	     36.50313072	     90.00000001	      0.00000000	      0.00000000
      2.11000000	      4.53371350	      0.56780251	     10.56384032	      0.39610252	      0.84842886	      0.15817480	     28.09761116	      0.48434521	     -8.07670947	     24.24473087	     -2.63788920	      0.42315038	     11.81142395	    -17.19333687	     -7.50552501	      9.51590559	      7.80958759	     -9.24211416	     41.22353714	    -13.63000223	      0.71948645	     33.74399705	     -7.28563107	     -7.50552501	    -32.73551154	      4.15430678	     -7.18786076	      8.26229620	     -4.82850583	     -8.59939430	     29.08037006	     90.00000001	      0.00000000	      0.00000000	     28.14343450	    -11.99898290	      4.35682901	     36.74171689	     90.00000001	      0.00000000	      0.00000000
      2.12000000	      4.52896325	      0.36556212	     10.72760758	      0.40526554	      0.84746881	      0.15869701	     28.02782451	      0.81462946	     -8.00182916	     24.17917604	     -2.59189450	      0.42200623	     11.37970951	    -17.16430735	     -7.50545454	      8.90113771	      7.46005124	     -8.86784901	     41.48720706	    -13.59717102	      0.72408836	     34.79115606	     -7.44472114	     -7.50545454	    -32.67026376	      4.47582499	     -7.03510481	      8.01601880	     -4.90683122	     -8.91023806	     28.88434200	     90.00000001	      0.00000000	      0.00000000	     28.13775413	    -11.90885715	      4.53733088	     37.37711755	     90.00000001	      0.00000000	      0.00000000
      2.13000000	      4.47812750	      0.18665065	     10.94904957	      0.41447212	      0.84654539	      0.15913023	     28.00952995	      1.09547663	     -7.77513883	     24.55236172	     -2.49178680	      0.42851955	     11.24543942	    -17.15548064	     -7.50544149	      8.35279913	      7.24078369	     -8.65088098	     41.67192929	    -13.88004096	      0.72731237	     34.93404004	     -7.48533325	     -7.50544149	    -32.53622734	      4.80305249	     -7.06128697	      7.74221758	     -4.95073267	     -8.98770097	     28.75526501	     90.00000001	      0.00000000	      0.00000000	     28.09435193	    -11.89183878	      4.56453875	     37.49739710	     90.00000001	      0.00000000	      0.00000000
      2.14000000	      4.46286569	     -0.00285286	     11.07466848	      0.42369880	      0.84574312	      0.15979492	     28.07317532	      1.45176102	     -7.49611530	     25.47303974	     -2.40997833	      0.44458841	     10.52694982	    -17.66026014	     -7.50479587	      7.71913811	      7.00632662	     -7.83455059	     42.00368018	    -13.70523168	      0.73310252	     35.61552188	     -8.61132118	     -7.50479587	    -32.46771568	      5.08953670	     -6.91943992	      7.83287790	     -4.76007983	    -10.97371114	     28.25905203	     90.00000001	      0.00000000	      0.00000000	     27.51257120	    -12.19604546	      5.57123899	     39.37646872	     90.00000001	      0.00000000	      0.00000000
      2.15000000	      4.52384184	     -0.22196696	     11.18097104	      0.43309463	      0.84520760	      0.16048494	     27.99555203	      1.90350448	     -7.09850058	     26.50165886	     -2.33220535	      0.46254120	     10.20086232	    -17.84182389	     -7.50475584	      7.09441204	      6.66238616	     -7.68654042	     42.34311374	    -13.89285076	      0.73902675	     35.87936077	     -8.80504655	     -7.50475584	    -32.43919788	      5.42758198	     -6.72864550	      7.66250684	     -4.88431846	    -11.05329277	     28.14060006	     90.00000001	      0.00000000	      0.00000000	     27.42233604	    -12.05411948	      5.54341685	     39.51245672	     90.00000001	      0.00000000	      0.00000000
      2.16000000	      4.58674935	     -0.47777608	     11.38355412	      0.44259196	      0.84492177	      0.16109322	     27.77651633	      2.43261890	     -6.62995898	     27.37479773	     -2.31846562	      0.47778035	     10.02005782	    -17.87212271	     -7.50474497	      6.49776822	      6.37755367	     -7.43006559	     42.70105765	    -14.29171564	      0.74527405	     35.91543227	     -8.88379699	     -7.50474497	    -32.37441573	      5.85313179	     -6.67279476	      7.45951705	     -4.94544302	    -11.09117786	     28.03462551	     90.00000001	      0.00000000	      0.00000000	     27.19442298	    -11.96135077	      5.53604021	     39.52356571	     90.00000001	      0.00000000	      0.00000000
      2.17000000	      4.69322268	     -0.66014569	     11.31385467	      0.45203461	      0.84474370	      0.16214705	     27.78846408	      2.92074949	     -6.09456557	     28.91704307	     -2.18608994	      0.50469761	      9.53991752	    -18.34700856	     -7.50470258	      5.96281162	      5.96985381	     -7.47424045	     43.36974302	    -14.34025223	      0.75694481	     36.02788751	     -9.41952422	     -7.50470258	    -32.42937034	      6.07476338	     -6.29082313	      7.44653508	     -5.14768919	    -11.17584632	     27.91042413	     90.00000001	      0.00000000	      0.00000000	     27.00888955	    -11.77547512	      5.43057321	     39.86910040	     90.00000001	      0.00000000	      0.00000000
      2.18000000	      4.80316946	     -0.88332797	     11.41279491	      0.46165123	      0.84496412	      0.16298021	     27.47096584	      3.49138244	     -5.58892333	     29.79660164	     -2.18468499	      0.52004880	      9.40865992	    -18.37896690	     -7.50469250	      5.40975944	      5.76642453	     -7.18804189	     43.94579278	    -14.81796195	      0.76699878	     35.89512310	     -9.52047351	     -7.50469250	    -32.41813037	      6.42606165	     -6.16857745	      7.33346137	     -5.20029291	    -11.20438456	     27.82967738	     90.00000001	      0.00000000	      0.00000000	     26.61696129	    -11.67749671	      5.40941137	     39.85002245	     90.00000001	      0.00000000	      0.00000000
      2.19000000	      4.75249278	     -1.03120220	     11.30984453	      0.47091549	      0.84502127	      0.16420899	     27.56025311	      3.92435508	     -4.80204373	     31.16650679	     -1.90278703	      0.54395816	      9.12687818	    -18.76068956	     -7.50443258	      5.27235037	      5.52916378	     -6.61840928	     45.21354783	    -14.59134419	      0.78912528	     34.64274339	    -11.93438521	     -7.50443258	    -32.34503869	      6.56901248	     -5.93060226	      7.57913053	     -5.30469412	    -11.45201029	     27.46160959	     90.00000001	      0.00000000	      0.00000000	     25.92534078	    -11.55524341	      4.64706768	     41.11444237	     90.00000001	      0.00000000	      0.00000000
